<?xml version="1.0" encoding="UTF-8"?>
<svg id="Layer_2" data-name="Layer 2" xmlns="http://www.w3.org/2000/svg" viewBox="0 0 827 432.27">
  <defs>
    <style>
      .cls-1 {
        stroke: #231f20;
      }

      .cls-1, .cls-2 {
        fill: none;
        stroke-miterlimit: 10;
      }

      .cls-3 {
        font-size: 160px;
        letter-spacing: 0em;
      }

      .cls-3, .cls-4 {
        font-family: Algerian, Algerian;
      }

      .cls-2 {
        stroke: #000;
        stroke-linecap: round;
        stroke-width: 3px;
      }

      .cls-4 {
        font-size: 140px;
      }

      .cls-5 {
        fill: #58595b;
      }
    </style>
  </defs>
  <polyline class="cls-5" points="301.15 56.9 299.74 56.9 297.1 56.9 294.79 55.79 291.37 55.79 291.37 52.41 290.13 52.41 289.35 52.9 287.65 52.9 287.65 54.18 288.64 54.18 289.52 55.09 289.52 55.48 289.52 62.82 284.83 62.82 284.83 65.13 285.78 65.13 285.78 77.84 287.81 79.6 295.62 79.6 298.67 77.49 298.33 74.32 294.4 74.78 294.23 73.24 302.43 65.99 302.43 58.45 300.55 56.9"/>
  <path d="M365.55,75.67c17.01,.45,34,3.29,49.96,9.3,38.74,14.37,70.23,49.23,71.69,91.87,2.21,51-38.55,92.71-86.38,103.68-28.85,6.89-59.97,3.62-86.72-9.13-31.09-14.73-56.73-43.57-62.13-78.12-2.79-16.84-.95-34.14,4.54-50.26,.26-.79,1.11-1.22,1.9-.95,.86,.28,1.28,1.27,.88,2.08-12.24,25.16-7.92,56.25,7.75,78.93,34.03,49.67,108.24,58.2,157.75,28.05,20.75-12.49,37.57-32,44.23-55.46,12.85-45.1-13.89-88.29-55.09-106.89-10.05-4.6-20.81-7.7-31.78-9.19-5.52-.71-11.09-1-16.65-.9-1.99-.02-1.99-3.02,.05-3h0Z"/>
  <path d="M392.64,45.81l-27.85,1.95-5.65,1.14-4.57,1.75-2.69,.86h-16.46l-1.19-1.19v-9.12l1.18-1.18h3.3v-1.35h-2.56l-3.09-1.75v-1.08l-6.46,.87-3.03,1.14-3.77,6.93h-1.14v2.76l-4.31,6.59-6.86,2.76h-6.93l1.88,1.55v7.53l-8.2,7.26c.01,.23,.02,.46,.02,.69,0,.1-.02,.19-.03,.29,0,.02,4.44,.1,4.44,.1v3.16l-3.36,2.09-7.13,.2-2.42-1.14h-4.31l-4.71,2.89h-17.29l-7.06-4.64v-6.46h4.98l6.19-9.22,6.93-6.5-2.09-9.58v-9.62l-.78-.54c-9.74-10.96-30.37-10.56-36.52,7.57v8.2l-13.1,1.72-11.48,2.71-11.8,9.25-16.26,15.94-17.86,31.73-13.39,15.15-4.3,8.45v18.02l2.55,4.78v10.2l-.64,29.66-11.64,21.68-6.06,9.73-2.87,7.02-6.86,14.83-11.48,14.51v9.73l-5.26,8.77v7.17h18.5v-2.87l21.05-.48,5.74-5.58-2.87-4.15-11-.16-2.87-3.35v-12.6l7.81-13.71,8.45-7.97,15.78-34.12,10.2-17.22h8.77l7.33,11.8,3.67,9.09,6.38,15.31,9.09,18.97,2.23,2.71,1.91,10.2v32.85l52.81,.75c.04-.09,.08-.18,.13-.27,0,0,0,0,0,0l-7.12-8.5h-17.16l-3.87-4.9-6.56-60.91-21.93-46.08-6.66-20.85v-17.15l33.23-35.25h11.03l16.28,13.32,6.12,4.24h4.31s1.22-1.22,1.55-1.69c.4-.57,.84-1.11,1.31-1.62,.2-.32,.4-.65,.58-.97,.14-.24,.4-7.28,.4-7.28h2.02l2.29-2.29v-2.69l3.83-3.57v-1.48l3.3-.54,6.53-2.02,10.02-5.38,.04-1.79s-.01,0-.02,0c-.23-.16-.44-.34-.62-.55-.1-.11-1.49-.35-1.49-.35l-.2-3.43-.94-1.35v-2.89l1.01-.07,2.19-3.83v-2.39l1.51-1.51h13.99l1.61-1.61h7.47l1.08,1.95h19.98l16.7,2.56,26.69,.94,3.36-2.76v-19.44l-2.96-3.03Z"/>
  <path class="cls-1" d="M289.52,55.09v0Z"/>
  <text class="cls-3" transform="translate(284.83 233.4)"><tspan x="0" y="0">Y.</tspan></text>
  <line class="cls-2" x1="33.88" y1="291.78" x2="787.2" y2="291.78"/>
  <line class="cls-2" x1="33.88" y1="406.33" x2="787.2" y2="406.33"/>
  <text/>
  <text class="cls-4" transform="translate(33.88 395.97)"><tspan x="0" y="0">DEMERJIAN</tspan></text>
</svg>