<?xml version="1.0" encoding="UTF-8"?>
<svg id="Layer_2" data-name="Layer 2" xmlns="http://www.w3.org/2000/svg" viewBox="0 0 827 452.45">
  <defs>
    <style>
      .cls-1 {
        stroke: #231f20;
      }

      .cls-1, .cls-2, .cls-3, .cls-4 {
        stroke-miterlimit: 10;
      }

      .cls-1, .cls-4 {
        fill: none;
      }

      .cls-5 {
        font-size: 160px;
        letter-spacing: 0em;
      }

      .cls-5, .cls-6, .cls-2, .cls-3 {
        fill: #fff;
      }

      .cls-5, .cls-3 {
        font-family: Algerian, Algerian;
      }

      .cls-2, .cls-3, .cls-4 {
        stroke: #fff;
      }

      .cls-2, .cls-4 {
        stroke-linecap: round;
        stroke-width: 3px;
      }

      .cls-3 {
        font-size: 140px;
      }
    </style>
  </defs>
  <polyline class="cls-6" points="305.8 29.26 304.4 29.26 301.76 29.26 299.45 28.15 296.02 28.15 296.02 24.76 294.78 24.76 294 25.26 292.31 25.26 292.31 26.54 293.3 26.54 294.18 27.45 294.18 27.83 294.18 35.17 289.49 35.17 289.49 37.49 290.44 37.49 290.44 50.2 292.46 51.96 300.27 51.96 303.32 49.85 302.99 46.68 299.06 47.14 298.89 45.6 307.09 38.34 307.09 30.81 305.2 29.26"/>
  <path class="cls-6" d="M370.21,48.03c17.01,.45,34,3.29,49.96,9.3,38.74,14.37,70.23,49.23,71.69,91.87,2.21,51-38.55,92.71-86.38,103.68-28.85,6.89-59.97,3.62-86.72-9.13-31.09-14.73-56.73-43.57-62.13-78.12-2.79-16.84-.95-34.14,4.54-50.26,.26-.79,1.11-1.22,1.9-.95,.86,.28,1.28,1.27,.88,2.08-12.24,25.16-7.92,56.25,7.75,78.93,34.03,49.67,108.24,58.2,157.75,28.05,20.75-12.49,37.57-32,44.23-55.46,12.85-45.1-13.89-88.29-55.09-106.89-10.05-4.6-20.81-7.7-31.78-9.19-5.52-.71-11.09-1-16.65-.9-1.99-.02-1.99-3.02,.05-3h0Z"/>
  <path class="cls-6" d="M397.3,18.16l-27.85,1.95-5.65,1.14-4.57,1.75-2.69,.86h-16.46l-1.19-1.19V13.56l1.18-1.18h3.3v-1.35h-2.56l-3.09-1.75v-1.08l-6.46,.87-3.03,1.14-3.77,6.93h-1.14v2.76l-4.31,6.59-6.86,2.76h-6.93l1.88,1.55v7.53l-8.2,7.26c.01,.23,.02,.46,.02,.69,0,.1-.02,.19-.03,.29,0,.02,4.44,.1,4.44,.1v3.16l-3.36,2.09-7.13,.2-2.42-1.14h-4.31l-4.71,2.89h-17.29l-7.06-4.64v-6.46h4.98l6.19-9.22,6.93-6.5-2.09-9.58V7.87l-.78-.54c-9.74-10.96-30.37-10.56-36.52,7.57v8.2l-13.1,1.72-11.48,2.71-11.8,9.25-16.26,15.94-17.86,31.73-13.39,15.15-4.3,8.45v18.02l2.55,4.78v10.2l-.64,29.66-11.64,21.68-6.06,9.73-2.87,7.02-6.86,14.83-11.48,14.51v9.73l-5.26,8.77v7.17h18.5v-2.87l21.05-.48,5.74-5.58-2.87-4.15-11-.16-2.87-3.35v-12.6l7.81-13.71,8.45-7.97,15.78-34.12,10.2-17.22h8.77l7.33,11.8,3.67,9.09,6.38,15.31,9.09,18.97,2.23,2.71,1.91,10.2v32.85l52.81,.75c.04-.09,.08-.18,.13-.27,0,0,0,0,0,0l-7.12-8.5h-17.16l-3.87-4.9-6.56-60.91-21.93-46.08-6.66-20.85v-17.15l33.23-35.25h11.03l16.28,13.32,6.12,4.24h4.31s1.22-1.22,1.55-1.69c.4-.57,.84-1.11,1.31-1.62,.2-.32,.4-.65,.58-.97,.14-.24,.4-7.28,.4-7.28h2.02l2.29-2.29v-2.69l3.83-3.57v-1.48l3.3-.54,6.53-2.02,10.02-5.38,.04-1.79s-.01,0-.02,0c-.23-.16-.44-.34-.62-.55-.1-.11-1.49-.35-1.49-.35l-.2-3.43-.94-1.35v-2.89l1.01-.07,2.19-3.83v-2.39l1.51-1.51h13.99l1.61-1.61h7.47l1.08,1.95h19.98l16.7,2.56,26.69,.94,3.36-2.76V21.19l-2.96-3.03Z"/>
  <path class="cls-1" d="M294.18,27.45v0Z"/>
  <text class="cls-5" transform="translate(289.49 205.76)"><tspan x="0" y="0">Y.</tspan></text>
  <line class="cls-4" x1="38.53" y1="264.14" x2="791.85" y2="264.14"/>
  <line class="cls-2" x1="38.53" y1="378.69" x2="791.85" y2="378.69"/>
  <text/>
  <text class="cls-3" transform="translate(38.53 367.33)"><tspan x="0" y="0">DEMERJIAN</tspan></text>
</svg>